# xmcd CD database file
#
# Track frame offsets:
#	150
#	14526
#	28500
#	43908
#	58437
#	79227
#	94526
#	115334
#	133215
#	147785
#	167224
#	183920
#	200281
#	220772
#	238075
#	252755
#	276469
#	295196
#	317847
#	337827
#
# Disc length: 4749 seconds
#
# Revision: 0
# Processed by: cddbd v1.5PL3 Copyright (c) Steve Scherf et al.
# Submitted via: CDex 1.51
#
DISCID=30128b14
DTITLE=Touch And Go - Big Beat Boogie
DYEAR=1900
DGENRE=Jazz
TTITLE0=Would You
TTITLE1=Straight To Number One
TTITLE2=Tango In Harlem
TTITLE3=Big Beat
TTITLE4=Ecoute Repete
TTITLE5=So Hot
TTITLE6=Mein Freund Harvey
TTITLE7=Are You Talking About Me
TTITLE8=Would You Rio Edit
TTITLE9=Life's Beach
TTITLE10=Thanks For Coming
TTITLE11=Straight To Number One Mix
TTITLE12=Danceteria Bongo Bong
TTITLE13=Jazz Essential
TTITLE14=Mar Mary Shackles
TTITLE15=Wonderful World
TTITLE16=Blowing
TTITLE17=Straight To Number One Latino Mix
TTITLE18=Le Flic Et La Fille
TTITLE19=Straight To Number One Fish Mix
EXTD=
EXTT0=
EXTT1=
EXTT2=
EXTT3=
EXTT4=
EXTT5=
EXTT6=
EXTT7=
EXTT8=
EXTT9=
EXTT10=
EXTT11=
EXTT12=
EXTT13=
EXTT14=
EXTT15=
EXTT16=
EXTT17=
EXTT18=
EXTT19=
PLAYORDER=
